<svg width="162" height="259" viewBox="0 0 162 259" fill="none" xmlns="http://www.w3.org/2000/svg">
<path d="M28.5967 116.618L28.1588 51.8979C28.057 38.2411 55.1975 25.9591 69.781 19.3701C74.4962 17.2314 77.8671 15.6936 80.3317 14.3188C82.7351 15.602 86.0551 17.0583 90.9536 19.1766C105.619 25.511 132.932 37.294 133.024 50.9406L133.472 116.628L133.513 116.618L135.132 116.027L134.684 50.9304C134.582 36.2043 107.686 24.5843 91.6156 17.649C86.157 15.2863 82.6944 13.7688 80.3113 12.4042C77.857 13.8605 74.1805 15.551 69.0885 17.8526C53.1199 25.0833 26.3766 37.1616 26.4886 51.9183L26.9265 115.996L28.5967 116.618Z" fill="#12B76A"/>
<mask id="mask0_7_405" style="mask-type:luminance" maskUnits="userSpaceOnUse" x="15" y="0" width="134" height="115">
<path d="M15.4392 0H148.402V114.815H15.4392V0Z" fill="white"/>
</mask>
<g mask="url(#mask0_7_405)">
<path d="M17.7408 112.87V111.688L17.3233 51.9896C17.1807 30.9289 46.2154 17.7712 65.4327 9.07399L65.8095 8.91104C68.661 7.60748 71.6042 6.27337 73.8345 5.14294L73.8549 5.12258C73.8549 5.12258 74.2114 4.94945 74.2317 4.93926L74.4354 4.83742H74.4558C76.3602 3.93104 77.9693 3.11632 79.3645 2.34233L80.1588 1.90442L80.9634 2.33215C82.7354 3.28945 85.037 4.37914 88.4283 5.86601C88.581 5.94748 88.6625 5.97803 88.7542 6.00859C90.5975 6.86405 92.6139 7.72969 94.5591 8.56478L95.1294 8.8092C97.2375 9.71558 99.4678 10.6831 101.759 11.7015C102.462 12.007 103.175 12.3227 103.888 12.6588C104.499 12.9236 105.14 13.2291 105.782 13.5244C106.444 13.8197 107.147 14.1456 107.849 14.4817L108.073 14.5937C108.348 14.7261 108.623 14.8483 108.898 14.9807C109.906 15.4696 110.966 15.9686 112.015 16.4982C125.62 23.3113 143.728 34.2795 143.85 50.8591L144.267 111.576V112.9L145.938 112.371L145.927 110.609L145.52 50.8489C145.398 33.3629 126.761 22.0179 112.768 15.0113C111.699 14.4715 110.64 13.9623 109.631 13.4939C109.356 13.3513 109.061 13.2189 108.776 13.0865L108.572 12.9847C107.849 12.6384 107.147 12.3125 106.485 12.007C105.833 11.7117 105.181 11.4061 104.601 11.1515C103.867 10.8053 103.134 10.4794 102.442 10.1739C100.14 9.15546 97.9096 8.18797 95.7914 7.27141L95.2109 7.03718C93.2861 6.20209 91.2798 5.33644 89.518 4.5319L89.3652 4.4708C89.3652 4.4708 89.2837 4.43006 89.2328 4.40969L89.0902 4.34859C85.7499 2.8719 83.489 1.80258 81.7476 0.865644L80.1487 0L78.5599 0.886012C77.2768 1.5989 75.8102 2.34233 74.079 3.16724H74.028L73.4985 3.44221L72.8467 3.74773L72.7958 3.79865C70.6469 4.87816 67.8463 6.15116 65.117 7.39362L64.7402 7.55656C45.1359 16.437 15.5003 29.8494 15.6633 51.9896L16.0604 110.711V112.35L17.7408 112.87Z" fill="#12B76A"/>
</g>
<path d="M19.4107 113.399V112.676L18.983 51.9794C18.8404 31.9881 47.2946 19.1155 66.1249 10.5915C69.1699 9.20643 72.4594 7.71956 74.8323 6.49748C74.8424 6.49748 74.8526 6.49748 74.8526 6.48729C76.9505 5.49944 78.692 4.62361 80.1585 3.79871C82.1037 4.84766 84.5478 5.98827 87.7456 7.39367C87.8678 7.45478 87.9901 7.5057 88.1224 7.55662C90.088 8.463 92.3285 9.43048 94.4569 10.347C96.565 11.2534 98.7851 12.2107 101.077 13.2291C101.769 13.5245 102.472 13.8402 103.174 14.1661C103.806 14.4512 104.437 14.7364 105.069 15.0317C105.741 15.327 106.433 15.6529 107.116 15.9788C107.452 16.152 107.798 16.3047 108.144 16.4778C109.173 16.9667 110.222 17.4657 111.261 17.9851C126.842 25.7962 142.078 36.3062 142.179 50.8694L142.597 112.544V113.44L136.853 115.406L136.792 115.426L136.344 50.9101C136.232 35.1045 108.715 23.2197 92.2673 16.1214C86.381 13.5754 82.6027 11.9154 80.2909 10.4489C77.9995 11.9459 74.2518 13.6874 68.3959 16.3353C52.0506 23.7289 24.6962 36.1127 24.8184 51.9285L25.2461 115.395L19.4107 113.399Z" fill="#272727"/>
<path d="M106.321 153.575L119.927 166.591C122.748 169.289 123.278 173.607 121.19 176.917C120.996 177.223 120.609 177.335 120.273 177.172L90.7295 162.711L106.321 153.575Z" fill="#12B76A"/>
<path d="M54.8106 153.311L41.6223 166.224C38.7911 168.994 38.2208 173.343 40.2373 176.754C40.4308 177.08 40.828 177.202 41.164 177.029L70.6367 162.578L54.8106 153.311Z" fill="#12B76A"/>
<mask id="mask1_7_405" style="mask-type:luminance" maskUnits="userSpaceOnUse" x="0" y="109" width="162" height="53">
<path d="M0 109.601H161.438V161.743H0V109.601Z" fill="white"/>
</mask>
<g mask="url(#mask1_7_405)">
<path d="M161.325 112.361C161.254 111.984 160.887 111.739 160.511 111.821L160.297 111.862C152.424 113.491 144.878 115.874 137.362 118.481C119.031 124.948 101.453 133.228 84.446 142.536C83.2239 143.208 82.0222 143.901 80.8103 144.583C69.5365 138.248 57.6823 132.179 46.0114 127.077C31.6213 120.844 16.7323 115.141 1.31362 111.862L1.07939 111.821C0.804416 111.77 0.519264 111.892 0.376686 112.137C0.173005 112.462 0.28503 112.89 0.610919 113.084C18.9728 124.245 80.6168 161.468 80.6168 161.468C80.6168 161.468 135.814 128.451 161.03 113.084C161.264 112.931 161.407 112.636 161.346 112.35L161.325 112.361Z" fill="#05603A"/>
</g>
<mask id="mask2_7_405" style="mask-type:luminance" maskUnits="userSpaceOnUse" x="0" y="117" width="162" height="58">
<path d="M0 117.422H161.438V174.779H0V117.422Z" fill="white"/>
</mask>
<g mask="url(#mask2_7_405)">
<path d="M160.908 119.194C160.837 119.041 160.633 118.99 160.48 119.082C153.229 122.545 146.223 126.374 139.196 130.193C119.459 141.13 99.7529 153.321 80.8004 165.633C75.0565 161.926 69.3331 158.219 63.5588 154.563C43.3943 142.057 22.4458 129.5 1.11018 119.092C0.977792 119.001 0.804664 119.041 0.713006 119.174C0.62135 119.306 0.662086 119.489 0.794478 119.571L20.6737 132.82C33.6075 141.263 67.3778 163.912 80.78 172.446C103.501 157.843 138.493 134.358 160.806 119.571C160.928 119.5 160.979 119.337 160.908 119.204V119.194Z" fill="#12B76A"/>
</g>
<path d="M43.6099 222.229C44.0686 221.913 44.6563 221.956 45.3729 222.358C47.2076 223.418 48.5119 224.794 49.2859 226.486C50.0599 228.148 50.2463 229.883 49.8449 231.689C49.4723 233.409 48.7413 234.77 47.6519 235.774C46.5626 236.777 45.3156 237.279 43.9109 237.279C41.9616 237.336 40.6716 236.648 40.0409 235.215C39.4103 233.81 39.3959 231.961 39.9979 229.668C40.5999 227.346 41.7036 225.253 43.3089 223.39C43.3663 223.332 43.3949 223.146 43.3949 222.831C43.3949 222.487 43.4666 222.286 43.6099 222.229ZM47.6949 231.474C48.0389 231.216 47.9673 230.786 47.4799 230.184C46.1326 228.521 44.8569 227.718 43.6529 227.776C43.0509 227.776 42.5349 228.191 42.1049 229.023C41.6749 229.854 41.5173 230.499 41.6319 230.958C41.8899 232.018 42.7213 232.549 44.1259 232.549C45.5879 232.549 46.7776 232.19 47.6949 231.474ZM46.0179 209.888C46.0753 209.802 46.1899 209.773 46.3619 209.802C46.9353 210.002 47.4656 210.246 47.9529 210.533C48.4689 210.819 48.9563 211.163 49.4149 211.565C49.5296 211.679 49.5439 211.808 49.4579 211.952L47.3939 215.22C47.3366 215.306 47.2076 215.277 47.0069 215.134C46.9209 215.048 46.6773 214.89 46.2759 214.661C45.8746 214.403 45.3013 214.059 44.5559 213.629L42.9219 216.166C42.8359 216.309 42.6926 216.295 42.4919 216.123C42.3773 216.037 42.0763 215.836 41.5889 215.521C41.1016 215.205 40.3993 214.775 39.4819 214.231C39.3673 214.145 39.3529 214.059 39.4389 213.973L41.5459 210.834C41.6033 210.748 41.7179 210.719 41.8899 210.748C42.3773 210.891 42.8359 211.092 43.2659 211.35C43.6959 211.579 44.0973 211.851 44.4699 212.167L46.0179 209.888ZM60.773 232.205C61.7763 232.377 62.364 233.265 62.536 234.871C62.708 236.247 62.1203 236.863 60.773 236.72C59.4256 236.576 58.322 236.032 57.462 235.086C55.914 233.48 55.183 229.797 55.269 224.035C55.2976 222.429 55.2833 220.896 55.226 219.434C55.1686 217.943 55.0683 216.538 54.925 215.22C54.7243 213.442 54.538 211.98 54.366 210.834C54.2226 209.687 54.0936 208.884 53.979 208.426C53.721 207.422 53.678 206.792 53.85 206.534L55.097 204.556C55.355 204.183 55.5413 204.212 55.656 204.642C56.4586 207.537 56.8743 212.74 56.903 220.251C56.9316 222.945 57.0176 225.124 57.161 226.787C57.333 228.421 57.5623 229.524 57.849 230.098C58.3936 231.244 59.3683 231.947 60.773 232.205ZM60.7095 232.205C64.0348 232.864 66.9588 232.061 69.4815 229.797C68.5355 226.242 64.6798 223.404 57.9145 221.283C57.5131 221.139 57.3125 220.58 57.3125 219.606C57.3125 218.66 57.3841 217.972 57.5275 217.542C58.6168 214.56 62.1141 211.378 68.0195 207.996C70.3988 206.648 72.7208 205.43 74.9855 204.341C77.2501 203.223 79.4431 202.234 81.5645 201.374C82.3385 201.087 82.6395 201.316 82.4675 202.062L81.8655 204.771C81.7795 205.172 81.5501 205.444 81.1775 205.588C79.6008 206.161 77.7805 206.935 75.7165 207.91C73.6525 208.884 71.3448 210.074 68.7935 211.479C66.2708 212.883 64.2068 214.102 62.6015 215.134C61.0248 216.137 59.9068 216.968 59.2475 217.628C61.5695 218.488 63.7768 219.505 65.8695 220.681C67.9908 221.856 69.9831 223.16 71.8465 224.594C73.0218 225.482 73.9535 226.213 74.6415 226.787C75.3581 227.36 75.8455 227.761 76.1035 227.991C79.1708 230.685 81.6218 232.147 83.4565 232.377C84.4885 232.491 84.7035 233.509 84.1015 235.43C83.9295 235.974 83.7145 236.247 83.4565 236.247C81.5931 236.247 78.5975 234.254 74.4695 230.27C73.8101 229.61 73.1365 228.994 72.4485 228.421C71.7605 227.819 71.0581 227.26 70.3415 226.744C70.3988 227.202 70.4131 227.704 70.3845 228.249C70.3558 228.765 70.3128 229.338 70.2555 229.969C69.6535 233.667 67.4461 235.874 63.6335 236.591C62.6015 236.82 61.6411 236.863 60.7525 236.72C59.8925 236.605 59.5341 235.774 59.6775 234.226C59.8208 232.764 60.1648 232.09 60.7095 232.205ZM88.9732 229.281C89.1452 228.937 89.3459 228.722 89.5752 228.636C89.8046 228.55 90.0052 228.621 90.1772 228.851C90.3492 229.08 90.3349 229.41 90.1342 229.84C90.0196 230.04 89.9049 230.255 89.7902 230.485C89.7042 230.714 89.5896 230.943 89.4462 231.173C92.9149 232.577 95.3372 231.646 96.7132 228.378C96.8852 228.034 97.0716 227.819 97.2722 227.733C97.5016 227.647 97.7022 227.704 97.8742 227.905C98.0462 228.105 98.0606 228.392 97.9172 228.765C97.5732 229.682 97.4299 230.327 97.4872 230.7C97.5732 231.388 98.1036 231.832 99.0782 232.033C100.082 232.233 100.827 232.09 101.314 231.603C101.802 231.115 102.26 229.954 102.69 228.12C102.719 227.89 102.891 227.776 103.206 227.776C103.522 227.776 103.722 227.89 103.808 228.12C104.84 230.786 106.216 232.205 107.936 232.377C108.309 232.434 108.553 232.835 108.667 233.581C108.811 234.326 108.796 234.942 108.624 235.43C108.452 235.974 108.223 236.247 107.936 236.247C105.586 236.247 103.866 234.828 102.776 231.99C102.719 231.818 102.647 231.818 102.561 231.99C102.017 233.767 101.529 234.957 101.099 235.559C100.641 236.161 100.082 236.49 99.4222 236.548C97.3869 236.634 95.8532 235.874 94.8212 234.269C93.7032 235.587 92.3272 236.247 90.6932 236.247C89.0879 236.247 87.8696 235.688 87.0382 234.57C85.9202 235.688 84.7306 236.247 83.4692 236.247C82.9246 236.247 82.5949 235.286 82.4802 233.366C82.4516 232.792 82.7812 232.463 83.4692 232.377C86.3072 232.176 88.1419 231.144 88.9732 229.281ZM97.2722 216.467C97.3296 216.381 97.4442 216.352 97.6162 216.381C98.1896 216.581 98.7199 216.825 99.2072 217.112C99.7232 217.398 100.211 217.742 100.669 218.144C100.784 218.258 100.798 218.387 100.712 218.531L98.6482 221.799C98.5909 221.885 98.4619 221.856 98.2612 221.713C98.1752 221.655 97.9459 221.512 97.5732 221.283C97.2292 221.053 96.7419 220.752 96.1112 220.38L94.6062 222.788C94.5202 222.902 94.3769 222.874 94.1762 222.702C94.0616 222.616 93.7606 222.415 93.2732 222.1C92.7859 221.784 92.0836 221.354 91.1662 220.81C91.0516 220.724 91.0372 220.638 91.1232 220.552L93.2302 217.456C93.2876 217.37 93.4022 217.341 93.5742 217.37C93.9756 217.513 94.3626 217.685 94.7352 217.886C95.1366 218.058 95.5092 218.273 95.8532 218.531L97.2722 216.467ZM94.3052 211.995C94.3626 211.909 94.4772 211.88 94.6492 211.909C95.2226 212.109 95.7529 212.353 96.2402 212.64C96.7562 212.926 97.2436 213.27 97.7022 213.672C97.8456 213.815 97.8742 213.944 97.7882 214.059L95.7242 217.327C95.6382 217.441 95.4949 217.413 95.2942 217.241C95.1796 217.155 94.8786 216.954 94.3912 216.639C93.9039 216.323 93.2016 215.893 92.2842 215.349C92.1409 215.263 92.1122 215.177 92.1982 215.091L94.3052 211.995ZM117.928 222.573C119.877 222.63 121.21 225.009 121.927 229.711C121.984 230.026 121.941 230.27 121.798 230.442L119.433 233.409C119.232 233.695 118.96 233.796 118.616 233.71C116.408 233.079 114.459 232.047 112.768 230.614C111.42 234.369 109.801 236.247 107.909 236.247C107.708 236.247 107.493 235.946 107.264 235.344C106.805 233.91 106.791 232.993 107.221 232.592C107.393 232.448 107.622 232.377 107.909 232.377C109.227 232.348 110.489 231.545 111.693 229.969C112.094 229.424 113.026 227.847 114.488 225.239C115.491 223.461 116.638 222.573 117.928 222.573ZM114.832 226.787C115.835 227.761 117.125 228.421 118.702 228.765C118.73 227.532 118.315 226.715 117.455 226.314C116.595 225.912 115.72 226.07 114.832 226.787Z" fill="black"/>
</svg>
